<mxfile host="Electron" modified="2023-04-15T21:54:52.140Z" agent="Mozilla/5.0 (Windows NT 10.0; Win64; x64) AppleWebKit/537.36 (KHTML, like Gecko) draw.io/21.1.2 Chrome/106.0.5249.199 Electron/21.4.3 Safari/537.36" etag="PrX7ZP4WwaFr0K4rWWPs" version="21.1.2" type="device">
  <diagram name="Страница 1" id="vSN0zOsbVQ_ziBr6iRNW">
    <mxGraphModel dx="2058" dy="1188" grid="1" gridSize="10" guides="1" tooltips="1" connect="1" arrows="1" fold="1" page="1" pageScale="1" pageWidth="827" pageHeight="1169" math="0" shadow="0">
      <root>
        <mxCell id="0" />
        <mxCell id="1" parent="0" />
        <mxCell id="NfnfCwqI7M4uG_9BYdU6-4" style="edgeStyle=orthogonalEdgeStyle;rounded=0;orthogonalLoop=1;jettySize=auto;html=1;exitX=0.5;exitY=1;exitDx=0;exitDy=0;exitPerimeter=0;entryX=0.5;entryY=0;entryDx=0;entryDy=0;endArrow=none;endFill=0;" parent="1" source="NfnfCwqI7M4uG_9BYdU6-1" target="NfnfCwqI7M4uG_9BYdU6-3" edge="1">
          <mxGeometry relative="1" as="geometry" />
        </mxCell>
        <mxCell id="NfnfCwqI7M4uG_9BYdU6-1" value="Начало" style="strokeWidth=2;html=1;shape=mxgraph.flowchart.terminator;whiteSpace=wrap;fontSize=18;" parent="1" vertex="1">
          <mxGeometry x="314" y="10" width="200" height="120" as="geometry" />
        </mxCell>
        <mxCell id="NfnfCwqI7M4uG_9BYdU6-2" value="Конец" style="strokeWidth=2;html=1;shape=mxgraph.flowchart.terminator;whiteSpace=wrap;fontSize=18;" parent="1" vertex="1">
          <mxGeometry x="314" y="610" width="200" height="120" as="geometry" />
        </mxCell>
        <mxCell id="NfnfCwqI7M4uG_9BYdU6-6" style="edgeStyle=orthogonalEdgeStyle;rounded=0;orthogonalLoop=1;jettySize=auto;html=1;exitX=0.5;exitY=1;exitDx=0;exitDy=0;entryX=0.5;entryY=0;entryDx=0;entryDy=0;endArrow=none;endFill=0;" parent="1" source="NfnfCwqI7M4uG_9BYdU6-3" target="NfnfCwqI7M4uG_9BYdU6-5" edge="1">
          <mxGeometry relative="1" as="geometry" />
        </mxCell>
        <mxCell id="NfnfCwqI7M4uG_9BYdU6-3" value="&amp;nbsp; &amp;nbsp;&lt;br&gt;&amp;nbsp; &amp;nbsp;Местоположения источников света, &lt;br&gt;виртуальный&amp;nbsp;&lt;br style=&quot;font-size: 18px;&quot;&gt;объект" style="shape=parallelogram;html=1;strokeWidth=2;perimeter=parallelogramPerimeter;whiteSpace=wrap;rounded=0;arcSize=12;size=0.23;fontSize=18;" parent="1" vertex="1">
          <mxGeometry x="314" y="160" width="200" height="120" as="geometry" />
        </mxCell>
        <mxCell id="NfnfCwqI7M4uG_9BYdU6-8" style="edgeStyle=orthogonalEdgeStyle;rounded=0;orthogonalLoop=1;jettySize=auto;html=1;exitX=0.5;exitY=1;exitDx=0;exitDy=0;entryX=0.5;entryY=0;entryDx=0;entryDy=0;endArrow=none;endFill=0;" parent="1" source="NfnfCwqI7M4uG_9BYdU6-5" target="Q0BGxJ1u2LFEOoA4-sqN-1" edge="1">
          <mxGeometry relative="1" as="geometry">
            <mxPoint x="414" y="460" as="targetPoint" />
          </mxGeometry>
        </mxCell>
        <mxCell id="NfnfCwqI7M4uG_9BYdU6-5" value="Расстановка источников света" style="verticalLabelPosition=middle;verticalAlign=middle;html=1;shape=process;whiteSpace=wrap;rounded=0;size=0.14;arcSize=6;strokeWidth=2;labelPosition=center;align=center;fontSize=18;" parent="1" vertex="1">
          <mxGeometry x="314" y="310" width="200" height="120" as="geometry" />
        </mxCell>
        <mxCell id="Q0BGxJ1u2LFEOoA4-sqN-2" style="edgeStyle=orthogonalEdgeStyle;rounded=0;orthogonalLoop=1;jettySize=auto;html=1;exitX=0.5;exitY=1;exitDx=0;exitDy=0;entryX=0.5;entryY=0;entryDx=0;entryDy=0;entryPerimeter=0;" parent="1" source="Q0BGxJ1u2LFEOoA4-sqN-1" target="NfnfCwqI7M4uG_9BYdU6-2" edge="1">
          <mxGeometry relative="1" as="geometry" />
        </mxCell>
        <mxCell id="Q0BGxJ1u2LFEOoA4-sqN-1" value="Синтез конечного изображения виртуальной сцены" style="verticalLabelPosition=middle;verticalAlign=middle;html=1;shape=process;whiteSpace=wrap;rounded=0;size=0.14;arcSize=6;strokeWidth=2;labelPosition=center;align=center;fontSize=18;" parent="1" vertex="1">
          <mxGeometry x="314" y="460" width="200" height="120" as="geometry" />
        </mxCell>
      </root>
    </mxGraphModel>
  </diagram>
</mxfile>
